<svg width="312" height="208" fill="none" xmlns="http://www.w3.org/2000/svg"><g clip-path="url(#clip0)"><path fill="#fff" d="M0 0h312v208H0z"/><path d="M312 13H0v195h312V13z" fill="#D4E2FB"/><path d="M238.446 138.128l-.101-.036a27.407 27.407 0 0 1-16.543-16.761h16.644v16.797z" fill="#9F663F"/><path d="M244.559 77.047v51.273c0 .368-.044.737-.116 1.098-.538 2.797-3.107 4.894-6.192 4.894h-16.449c-3.092 0-5.654-2.104-6.191-4.894a5.67 5.67 0 0 1-.117-1.098V77.047c0-3.332 2.817-6.014 6.308-6.014h16.449c3.484 0 6.308 2.682 6.308 6.014z" fill="#392151"/><path d="M244.559 77.698h-29.065v50.427h29.065V77.698z" fill="#fff"/><path d="M237.373 139.197v82.605l29.841-7.581-13.974-75.024h-15.867zm3.853-40.367a6.88 6.88 0 0 1 0-9.75l8.994 8.956a9.718 9.718 0 0 1 2.86 6.83l.159 34.324h-15.874c-1.655-11.456-5.016-12.778-.676-23.512l7.862-13.385-3.325-3.462zm-20.033 6.347a3.367 3.367 0 0 0 0-4.771l-5.241-5.218a3.401 3.401 0 0 0-4.791 0 3.366 3.366 0 0 0 0 4.77l5.241 5.219a3.402 3.402 0 0 0 4.791 0z" fill="#C38358"/><path d="M222.201 96.894a3.366 3.366 0 0 0 0-4.77l-5.241-5.219a3.402 3.402 0 0 0-4.791 0 3.366 3.366 0 0 0 0 4.77l5.241 5.219a3.388 3.388 0 0 0 4.791 0zm-3.549 15.178a3.435 3.435 0 0 0 0-4.871l-3.317-3.303a3.471 3.471 0 0 0-4.893 0 3.435 3.435 0 0 0 0 4.871l3.317 3.303c1.343 1.345 3.535 1.345 4.893 0z" fill="#C38358"/><path d="M217.404 117.529a3.437 3.437 0 0 0 0-4.872l-.835-.831a3.472 3.472 0 0 0-4.892 0 3.437 3.437 0 0 0 0 4.872l.835.831a3.472 3.472 0 0 0 4.892 0zm-115.93 2.826l11.397-36.868-2.991-10.936v-.043h47.269l-.014.043-1.43 5.262-7.578 28.289c-1.931 7.199 3.84 14.578 10.997 15.706l-57.65-1.453zm57.875-55.928c4.21 0 8.115-2.695 10.278-7.09l.298-.607c.334-.68.595-1.402.719-2.175.653-4.127-1.938-8.204-5.604-8.204-3.143 0-5.691 3.1-5.691 6.924v11.152z" fill="#C38358"/><path d="M107.81 64.427c-4.21 0-8.115-2.695-10.278-7.09l-.298-.607c-.334-.68-.595-1.402-.719-2.175-.653-4.127 1.939-8.204 5.604-8.204 3.143 0 5.691 3.1 5.691 6.924v11.152z" fill="#F0C5C8"/><path d="M165.852 35.697c0 2.617-.254 5.168-.733 7.626l-.008.036a37.327 37.327 0 0 1-1.444 5.269c-2.178 6.215-5.887 11.586-10.62 15.54-5.408 4.53-12.144 7.227-19.453 7.227-7.31 0-14.039-2.689-19.447-7.228-4.74-3.96-8.456-9.345-10.634-15.583a38.79 38.79 0 0 1-1.423-5.225l-.007-.036a39.29 39.29 0 0 1-.733-7.626C101.35 15.98 115.788 0 133.601 0c17.813 0 32.251 15.988 32.251 35.697z" fill="#392151"/><path d="M133.594 63.806v8.702h-23.547l-2.272-8.34-4.254-15.584-1.43-5.225-.007-.036 31.51 20.483z" fill="#162D38"/><path d="M165.119 43.323l-.008.036-1.444 5.269-4.247 15.54-2.279 8.34h-23.547v-8.702l31.525-20.483z" fill="#392151"/><path d="M109.88 72.508l.007.036 2.984 10.935-11.397 36.876h42.835l11.389-42.542 1.444-5.27.007-.035H109.88z" fill="#C38358"/><path d="M157.308 64.42l-.167 8.088c-2.765 10.198-5.357 20.165-12.637 27.248-1.916 1.858-6.018 5.045-10.475 8.355a62.095 62.095 0 0 1-37.02 12.244H66.415c-13.43 0-23.73-12.583-20.238-25.492.13-.492.283-.976.443-1.46 3.23-9.62 10.968-17.043 19.156-23.07 8.173-6.043 17.13-11.131 24.433-18.214 7.28-7.07 9.879-17.029 12.638-27.234l36.831 7.842-5.074 31.693h22.705z" fill="#392151"/><path d="M138.835 164.422l38.639 47.45 39.074 29.93c21.994 21.899 57.127-8.088 38.065-32.568a32.482 32.482 0 0 0-2.054-2.378c-.189-.188-.37-.376-.559-.564l-77.604-77.271-35.561 35.401z" fill="#fff"/><path d="M186.054 158.741v101.505H71.067l-14.372-94.66c-2.345-15.504 3.121-31.491 14.256-39.673 4.798-3.527 10.438-5.558 16.478-5.558h66.846c17.552 0 31.779 17.187 31.779 38.386zm78.664 54.916a13.07 13.07 0 0 1-9.291-3.874l-2.432-2.465 4.5 15.713 7.223-9.374z" fill="#fff"/></g><defs><clipPath id="clip0"><path fill="#fff" d="M0 0h312v208H0z"/></clipPath></defs></svg>