<svg width="312" height="207" fill="none" xmlns="http://www.w3.org/2000/svg"><path fill="#EEE5FE" d="M0 12h312v207H0z"/><path d="M209.486 148.596l1.158-.689c2.51-1.497 5.412-2.363 8.407-2.505l4.091-.199c3.652-.177 7.109-1.554 9.713-3.89l2.48-2.221c4.716-4.217 11.781-7.74 17.781-8.74 6-1 11.5-1.5 11.5-1.5l-8.258 37.149-37.549 16.609 11.7-19.009-.117-6.111c-.039-1.917-1.791-3.428-3.903-3.372l-14.938.412c-3.582.085-5.06-4.145-2.065-5.934z" fill="#7F5746"/><path d="M119.184 123.616c0-.014-.008-.021-.016-.035-.328-1.832-2.393-2.953-4.348-2.407l-8.204 2.322a18.397 18.397 0 0 1-6.328.021L83.52 120.55c-4.638-.816-9.424-.54-13.898.823l-6.945 2.108a42.286 42.286 0 0 0-9.987 4.493c-8.056 4.976-17.574 7.638-27.32 7.638h-62.356v33.39l70.162-10.875a54.833 54.833 0 0 1 18.426.291l11.529 2.165 40.239-10.157-.86-9.128-10.606-4.38.07-.021a14.736 14.736 0 0 1 6.296-.504c3.692.532 7.454.27 10.997-.781l2.346-.71c5.217-1.583 8.408-6.345 7.571-11.286z" fill="#B08978"/><path d="M25.324 135.655l2.448 30.323-80.916 13.259 1.408-44.264 77.06.682z" fill="#fff"/><path d="M135.5 71.401v.5h41.913v-.5h.442V53.678c0-11.687-9.491-21.178-21.177-21.178-11.687 0-21.178 9.491-21.178 21.178v17.724zm38.865-17.723V68.41h-35.374V53.678c0-9.744 7.943-17.687 17.687-17.687 9.744 0 17.687 7.943 17.687 17.687z" fill="#2E3941" stroke="#2E3941"/><path d="M209.382 66.594l-1.506-1.506-1.506 1.506h-.058l-1.506-1.506-1.506 1.506h-.058l-1.506-1.506-1.506 1.506h-.058l-1.506-1.506-1.506 1.506h-.058l-1.505-1.506-1.506 1.506-1.506-1.506-1.506 1.506-1.506-1.506-1.506 1.506-1.506-1.506-1.506 1.506-1.506-1.506-1.506 1.506-1.506-1.506-1.506 1.506-1.506-1.506-1.506 1.506-1.506-1.506-1.506 1.506-1.506-1.506-1.505 1.506-1.506-1.506-1.506 1.506-10.542 8.05-10.542-8.05-1.505-1.506-1.506 1.506h-.058l-1.506-1.506-1.506 1.506h-.058l-1.506-1.506-1.506 1.506h-.058l-1.506-1.506-1.506 1.506h-.058l-1.506-1.506-1.506 1.506h-.058l-1.505-1.506-1.506 1.506h.289l-1.506-1.506-1.506 1.506h-.058l-1.506-1.506-1.505 1.506h-.058l-1.506-1.506-1.506 1.506h-.058l-1.506-1.506-1.506 1.506h-.058l-1.506-1.506-1.506 1.506h.232l-1.506-1.506-1.506 1.506h-.058l-1.506-1.506-1.506 1.506h-.058l-1.506-1.506v-.058l-1.506 1.506-3.069 8.109A40.72 40.72 0 0 0 98 88.835V171.5h117V88.893c-.058-4.865-.927-9.672-2.606-14.19l-3.012-8.11z" fill="#fff"/><path d="M178.915 70.59v.522a.766.766 0 0 1-.753.753h-4.517c-.232 0-.406-.058-.522-.232a.733.733 0 0 1-.231-.52v-.522h.868v.29a.25.25 0 0 0 .232.231h3.765a.25.25 0 0 0 .232-.232v-.29h.926zm-38.864 0v.522a.767.767 0 0 1-.753.753h-4.518c-.232 0-.406-.058-.521-.232a.734.734 0 0 1-.232-.52v-.522h.869v.29c0 .115.116.231.231.231h3.765a.25.25 0 0 0 .232-.232v-.29h.927z" fill="#D4E2FC"/><path d="M167.042 66.594v17.608l-1.506 1.506-1.506-1.506-1.506 1.506-1.506-1.506-1.506 1.506-1.506-1.506-1.506 1.506-1.506-1.506-1.506 1.506-1.506-1.506-1.506 1.506-1.506-1.506-1.506 1.506-1.506-1.506V66.594h21.084z" fill="#06C167"/><path d="M205.849 167.924l2.002-1.001a25.003 25.003 0 0 1 9.315-2.562l18.77-1.448c3.285-.256 6.312-1.718 8.369-4.053 3.973-4.507 5.007-6.602 5.811-12.508.97-7.211 3.879-12.138 7-14.5s6.601-3.493 10.738-3.039l3.222.355c3.801.412 7.641-.291 10.965-2.009L322.961 106l14.531 22.26-12.075 15.41-36.657 6.111c-6.218 1.037-11.927 3.819-16.323 7.95l-20.827 19.598c-2.026 1.909-4.826 2.988-7.743 2.988-3.121 0-6.116 1.108-8.345 3.081-2.745 2.427-6.359 3.89-10.183 4.11l-26.576 1.519c-1.705.099-2.432-1.924-1.001-2.761l.242-.142c10.058-2.407 22.548-5.409 22.548-5.409l-21.507-2.854c-1.33-.198-1.455-1.888-.172-2.25l4.051-1.135c.774-.22 1.572-.362 2.377-.426l26.522-2.13-25.341-1.419c-1.517-.071-1.97-1.91-.633-2.577z" fill="#A26F59"/><path d="M273.306 150.811l4.974-.263s4.114 9.213 11.724 7.616c7.609-1.597-3.019 3.336-3.019 3.336l-8.416-2.896c0-.007-4.051-4.138-5.263-7.793z" fill="#FEE4B6"/><path d="M283.168 121.722c-6.179.646-10.699 7.021-11.599 15.34 1.041-6.098 4.544-10.641 9.229-11.13 6.351-.66 12.459 6.367 13.64 15.708 1.181 9.334-3.003 17.44-9.354 18.107-4.685.49-9.229-3.215-11.771-8.936 2.957 7.921 8.948 13.195 15.134 12.556 7.821-.816 12.975-10.796 11.521-22.295-1.463-11.506-8.987-20.166-16.8-19.35z" fill="#FDC458"/><path d="M270.091 146.098l10.167-1.434c3.371-.476 4.662 1.753 4.787 3.662.125 1.91-12.17 8.426-12.17 8.426l-6.507-2.477 3.723-8.177z" fill="#A26F59"/><path fill-rule="evenodd" clip-rule="evenodd" d="M269.116 128.953l1.96.215c2.377.258 4.769.08 7.04-.51v9.194h-9v-8.899z" fill="#A26F59"/><path d="M55.474 158.695c1.776-2.789 5.71-3.748 8.783-2.136l28.148 14.749c3.074 1.612 4.13 5.182 2.354 7.972-1.775 2.789-5.709 3.747-8.783 2.136l-28.147-14.75c-3.082-1.611-4.13-5.181-2.355-7.971z" fill="#F6BFA7"/><path d="M71.515 159.107c1.776-2.79 5.71-3.748 8.783-2.137l28.148 14.75c3.074 1.611 4.13 5.182 2.354 7.971-1.775 2.79-5.709 3.748-8.783 2.137l-28.148-14.75c-3.073-1.618-4.13-5.182-2.354-7.971z" fill="#F6BFA7"/><path d="M87.947 156.509c1.775-2.789 5.709-3.748 8.783-2.136l28.147 14.749c3.074 1.612 4.13 5.182 2.355 7.972-1.776 2.789-5.71 3.747-8.783 2.136l-28.148-14.75c-3.082-1.611-4.13-5.181-2.354-7.971z" fill="#F6BFA7"/><path d="M101.063 152.648c1.775-2.79 5.709-3.748 8.783-2.137l28.148 14.75c3.074 1.611 4.129 5.182 2.354 7.971-1.775 2.79-5.709 3.748-8.783 2.137l-28.148-14.75c-3.073-1.619-4.13-5.182-2.354-7.971z" fill="#F6BFA7"/><path d="M126.513 132.83c0-.015-.008-.022-.016-.036-.329-1.831-2.393-2.953-4.349-2.406l-8.204 2.321a18.391 18.391 0 0 1-6.327.021l-16.768-2.967c-4.638-.816-9.425-.539-13.898.824l-6.945 2.108a42.245 42.245 0 0 0-9.988 4.493c-8.056 4.976-17.574 7.637-27.319 7.637H-29.65v33.397l70.162-10.874a54.807 54.807 0 0 1 18.427.291l11.528 2.165 40.239-10.158-.86-9.128-10.605-4.379.07-.022a14.752 14.752 0 0 1 6.296-.504c3.691.533 7.453.27 10.996-.78l2.347-.71c5.208-1.59 8.399-6.353 7.563-11.293z" fill="#F6BFA7"/><path d="M20.06 144.52l3.856 36.634L-57 194.42v-50.581l77.06.681z" fill="#fff"/><path fill="#FDC458" d="M9 169.579l6.82-1.58 1.804 7.794-6.82 1.58z"/></svg>